<svg xmlns="http://www.w3.org/2000/svg" viewBox="0 0 1920 1280" width="100%" height="100%">
  <defs>
    <style>
      text { font-family: -apple-system, BlinkMacSystemFont, "Segoe UI", Roboto, "Hiragino Kaku Gothic ProN", "Meiryo", sans-serif; }
      .brand-title { font-weight: 900; font-size: 34px; fill: #0F172A; letter-spacing: -0.5px; }
      .brand-sub { font-weight: 900; font-size: 20px; fill: #DC2626; }
      .section-header { font-weight: 900; font-size: 18px; fill: #1E293B; }
      .dim-label { font-weight: 700; font-size: 13px; fill: #475569; }
      .equip-label { font-weight: 700; font-size: 12px; fill: #0F172A; }
      .equip-sub { font-weight: 700; font-size: 10px; fill: #475569; }
      .drop-shadow { filter: drop-shadow(3px 5px 6px rgba(0,0,0,0.18)); }
      .soft-shadow { filter: drop-shadow(1px 2px 3px rgba(0,0,0,0.12)); }
    </style>

    <linearGradient id="wallGradient" x1="0%" y1="0%" x2="100%" y2="100%">
      <stop offset="0%" stop-color="#334155"/>
      <stop offset="100%" stop-color="#0F172A"/>
    </linearGradient>
    <linearGradient id="kitchenFloor" x1="0%" y1="0%" x2="100%" y2="100%">
      <stop offset="0%" stop-color="#FFF7ED"/>
      <stop offset="100%" stop-color="#FFEDD5"/>
    </linearGradient>
    <linearGradient id="backroomFloor" x1="0%" y1="0%" x2="100%" y2="100%">
      <stop offset="0%" stop-color="#F1F5F9"/>
      <stop offset="100%" stop-color="#E2E8F0"/>
    </linearGradient>
    <linearGradient id="eatinFloor" x1="0%" y1="0%" x2="100%" y2="100%">
      <stop offset="0%" stop-color="#F0F9FF"/>
      <stop offset="100%" stop-color="#E0F2FE"/>
    </linearGradient>
    <linearGradient id="metalStainless" x1="0%" y1="0%" x2="0%" y2="100%">
      <stop offset="0%" stop-color="#FFFFFF"/>
      <stop offset="30%" stop-color="#F1F5F9"/>
      <stop offset="70%" stop-color="#CBD5E1"/>
      <stop offset="100%" stop-color="#94A3B8"/>
    </linearGradient>
    <linearGradient id="riceYellow" x1="0%" y1="0%" x2="100%" y2="100%">
      <stop offset="0%" stop-color="#FEF08A"/>
      <stop offset="100%" stop-color="#EAB308"/>
    </linearGradient>
    <linearGradient id="suzumoRed" x1="0%" y1="0%" x2="100%" y2="100%">
      <stop offset="0%" stop-color="#FEE2E2"/>
      <stop offset="100%" stop-color="#EF4444"/>
    </linearGradient>

    <pattern id="hatchBlind" width="10" height="10" patternTransform="rotate(45 0 0)" patternUnits="userSpaceOnUse">
      <line x1="0" y1="0" x2="0" y2="10" stroke="#DC2626" stroke-width="3"/>
    </pattern>

    <pattern id="blueprintGrid" width="40" height="40" patternUnits="userSpaceOnUse">
      <path d="M 40 0 L 0 0 0 40" fill="none" stroke="#E2E8F0" stroke-width="0.8"/>
    </pattern>

    <marker id="arrowCust" viewBox="0 0 10 10" refX="6" refY="5" markerWidth="6" markerHeight="6" orient="auto-start-reverse">
      <path d="M 0 0 L 10 5 L 0 10 z" fill="#CA8A04"/>
    </marker>
    <marker id="arrowStaff" viewBox="0 0 10 10" refX="6" refY="5" markerWidth="6" markerHeight="6" orient="auto-start-reverse">
      <path d="M 0 0 L 10 5 L 0 10 z" fill="#2563EB"/>
    </marker>
  </defs>

  <rect width="100%" height="100%" fill="#F8FAFC"/>
  <rect width="100%" height="100%" fill="url(#blueprintGrid)"/>

  <!-- TOP HEADER -->
  <g transform="translate(60, 45)">
    <g transform="translate(0, -25)">
      <circle cx="28" cy="28" r="24" fill="#FFD100" stroke="#000" stroke-width="2.5" class="drop-shadow"/>
      <path d="M 14 18 Q 28 8 42 18" stroke="#000" stroke-width="3" fill="none"/>
      <circle cx="19" cy="27" r="3" fill="#000"/>
      <circle cx="37" cy="27" r="3" fill="#000"/>
      <circle cx="16" cy="33" r="4.5" fill="#E60012"/>
      <circle cx="40" cy="33" r="4.5" fill="#E60012"/>
      <path d="M 20 38 Q 28 44 36 38" stroke="#000" stroke-width="3" fill="none"/>
    </g>

    <text x="70" y="-8" class="brand-title">元気寿司 エクスプレス <tspan class="brand-sub">Genki Sushi Express</tspan></text>
    <text x="70" y="22" class="section-header" fill="#475569">45㎡ QSR店舗建築図面 ＆ 3D完成パース［パターンC：ライブキッチン対面強化モデル］</text>

    <g transform="translate(1000, -20)">
      <rect width="780" height="42" fill="#FFFFFF" stroke="#CBD5E1" stroke-width="1.5" rx="8" class="soft-shadow"/>
      <text x="20" y="26" class="equip-label" fill="#0F172A">
        仕様要件: <tspan fill="#0284C7">敷地外8席</tspan> | <tspan fill="#B45309">炊飯器2台</tspan> | <tspan fill="#DC2626">SUZUMO巻きロボ</tspan> | <tspan fill="#0284C7">手洗い器HS</tspan> | <tspan fill="#DC2626">目隠し壁</tspan> | <tspan fill="#B45309">Subway対面3.8m</tspan>
      </text>
    </g>
  </g>

  <!-- UPPER SECTION: 3D STOREFRONT PERSPECTIVE SKETCH -->
  <g transform="translate(60, 110)" class="drop-shadow">
    <rect width="1800" height="340" fill="#1E293B" stroke="#0F172A" stroke-width="3" rx="12"/>
    <rect x="15" y="15" width="1770" height="310" fill="#0F172A" rx="8"/>
    
    <rect x="30" y="25" width="360" height="32" fill="#FFD100" rx="4"/>
    <text x="210" y="47" class="equip-label" text-anchor="middle" font-size="14" fill="#0F172A">【3D完成イメージパース】 パターンC：ライブ対面正面</text>

    <g transform="translate(200, 40)">
      <polygon points="100,50 1300,50 1300,260 100,260" fill="#1E293B"/>
      <polygon points="100,260 1300,260 1450,290 -50,290" fill="#334155"/>
      
      <polygon points="80,50 1320,50 1320,95 80,95" fill="#07070A" stroke="#FFD100" stroke-width="2"/>
      <circle cx="500" cy="72.5" r="14" fill="#FFD100"/>
      <text x="530" y="79" font-weight="900" font-size="22" fill="#FFFFFF">元気寿司 <tspan fill="#E60012">EXPRESS</tspan></text>

      <g transform="translate(180, 110)">
        <polygon points="0,40 540,40 580,130 0,130" fill="#FDE68A" stroke="#CA8A04" stroke-width="3"/>
        <polygon points="0,0 540,0 540,40 0,40" fill="#FEF08A" opacity="0.8"/>
        <polygon points="20,45 520,45 550,120 20,120" fill="#BAE6FD" opacity="0.6" stroke="#38BDF8"/>
        <text x="270" y="90" font-weight="900" font-size="15" fill="#78350F" text-anchor="middle">【大型拡大 3.8m】Subway風 対面ライブネタケース (職人手渡しライブ演出)</text>
      </g>

      <g transform="translate(760, 95)">
        <polygon points="0,0 180,0 180,145 0,145" fill="#334155" stroke="#475569" stroke-width="2"/>
        <rect x="20" y="40" width="140" height="80" fill="#DC2626" rx="4" opacity="0.9"/>
        <text x="90" y="80" font-weight="900" font-size="12" fill="#FFFFFF" text-anchor="middle">完全目隠し壁</text>
      </g>

      <g transform="translate(980, 110)">
        <polygon points="0,40 240,40 270,130 0,130" fill="#FFEDD5" stroke="#C2410C" stroke-width="2"/>
        <polygon points="0,0 240,0 240,40 0,40" fill="#FED7AA" opacity="0.8"/>
        <text x="120" y="90" font-weight="900" font-size="12" fill="#9A3412" text-anchor="middle">持ち帰りケース</text>
      </g>

      <g transform="translate(60, 120)">
        <polygon points="0,30 100,30 110,120 0,120" fill="#FEE2E2" stroke="#DC2626" stroke-width="2"/>
        <rect x="15" y="10" width="70" height="40" fill="#0F172A" rx="4"/>
        <text x="50" y="34" font-weight="900" font-size="11" fill="#FFD100" text-anchor="middle">POSレジ</text>
      </g>

      <path d="M 1200 240 L 950 240 L 400 240 L 110 240 L 110 280 L -80 280" fill="none" stroke="#FFD100" stroke-width="5" stroke-dasharray="10,6" marker-end="url(#arrowCust)"/>
      <text x="600" y="230" font-weight="900" font-size="13" fill="#FFD100">顧客動線：対面ケースで注文手渡し ➔ 左側POSで会計 ➔ 左外イートインへ</text>
    </g>
  </g>

  <!-- LOWER SECTION: ULTRA-HIGH PRECISION ARCHITECTURAL BLUEPRINT -->
  <g transform="translate(60, 480)">
    <rect width="1800" height="40" fill="#0F172A" rx="6"/>
    <text x="20" y="26" class="equip-label" font-size="15" fill="#FFD100">【超精密 建築平面図】 45㎡ 全要件完全反映レイアウト［パターンC］（縮尺 1/50）</text>

    <g transform="translate(240, 60)">
      <line x1="0" y1="-15" x2="1520" y2="-15" stroke="#475569" stroke-width="1.5"/>
      <line x1="0" y1="-22" x2="0" y2="-8" stroke="#475569" stroke-width="1.5"/>
      <line x1="1520" y1="-22" x2="1520" y2="-8" stroke="#475569" stroke-width="1.5"/>
      <text x="760" y="-22" class="dim-label" text-anchor="middle">店舗全体の幅 9.0m</text>
    </g>

    <g transform="translate(210, 80)">
      <line x1="-15" y1="0" x2="-15" y2="620" stroke="#475569" stroke-width="1.5"/>
      <line x1="-22" y1="0" x2="-8" y2="0" stroke="#475569" stroke-width="1.5"/>
      <line x1="-22" y1="620" x2="-8" y2="620" stroke="#475569" stroke-width="1.5"/>
      <text x="-25" y="310" class="dim-label" text-anchor="middle" transform="rotate(-90, -25, 310)">奥行 5.0m</text>
    </g>

    <!-- LEFT SIDE: EAT-IN AREA (OUTSIDE STORE) -->
    <g transform="translate(0, 80)" class="drop-shadow">
      <rect width="210" height="620" fill="url(#eatinFloor)" stroke="#0284C7" stroke-width="2.5" stroke-dasharray="6,4" rx="10"/>
      <rect x="15" y="15" width="180" height="36" fill="#0284C7" rx="6"/>
      <text x="105" y="38" class="equip-label" text-anchor="middle" fill="#FFFFFF">敷地外 イートイン</text>
      <text x="105" y="68" class="equip-sub" text-anchor="middle" fill="#0369A1" font-weight="bold">(モール共用通路沿い 8席)</text>

      <g transform="translate(45, 110)">
        <rect width="120" height="120" fill="#D97706" stroke="#78350F" stroke-width="3" rx="8" class="soft-shadow"/>
        <rect x="8" y="8" width="104" height="104" fill="#FBBF24" rx="6"/>
        <circle cx="-16" cy="60" r="22" fill="#475569" stroke="#1E293B" stroke-width="2"/>
        <circle cx="136" cy="60" r="22" fill="#475569" stroke="#1E293B" stroke-width="2"/>
        <circle cx="60" cy="-16" r="22" fill="#475569" stroke="#1E293B" stroke-width="2"/>
        <circle cx="60" cy="136" r="22" fill="#475569" stroke="#1E293B" stroke-width="2"/>
        <text x="60" y="68" class="brand-title" font-size="22" text-anchor="middle" fill="#78350F">4席</text>
      </g>

      <g transform="translate(45, 380)">
        <rect width="120" height="120" fill="#D97706" stroke="#78350F" stroke-width="3" rx="8" class="soft-shadow"/>
        <rect x="8" y="8" width="104" height="104" fill="#FBBF24" rx="6"/>
        <circle cx="-16" cy="60" r="22" fill="#475569" stroke="#1E293B" stroke-width="2"/>
        <circle cx="136" cy="60" r="22" fill="#475569" stroke="#1E293B" stroke-width="2"/>
        <circle cx="60" cy="-16" r="22" fill="#475569" stroke="#1E293B" stroke-width="2"/>
        <circle cx="60" cy="136" r="22" fill="#475569" stroke="#1E293B" stroke-width="2"/>
        <text x="60" y="68" class="brand-title" font-size="22" text-anchor="middle" fill="#78350F">4席</text>
      </g>
    </g>

    <!-- MAIN STORE BOUNDARY -->
    <g transform="translate(240, 80)" class="drop-shadow">
      <rect width="1520" height="620" fill="url(#kitchenFloor)"/>
      <rect width="1520" height="620" fill="none" stroke="url(#wallGradient)" stroke-width="16" rx="4"/>

      <!-- ZONE 1: BACKROOM -->
      <g transform="translate(1150, 0)">
        <rect width="370" height="290" fill="url(#backroomFloor)"/>
        <line x1="0" y1="0" x2="0" y2="290" stroke="#334155" stroke-width="8"/>
        <line x1="0" y1="290" x2="370" y2="290" stroke="#334155" stroke-width="8"/>
        <text x="185" y="35" class="equip-label" font-size="14" text-anchor="middle">バックルーム / 倉庫 (10㎡)</text>

        <g transform="translate(25, 60)" class="soft-shadow">
          <rect width="145" height="90" fill="url(#metalStainless)" stroke="#334155" stroke-width="2" rx="4"/>
          <line x1="95" y1="0" x2="95" y2="90" stroke="#475569" stroke-width="2"/>
          <text x="72.5" y="52" class="equip-label" text-anchor="middle">F 業務用冷蔵庫</text>
        </g>

        <g transform="translate(195, 60)" class="soft-shadow">
          <rect width="145" height="90" fill="url(#metalStainless)" stroke="#334155" stroke-width="2" rx="4"/>
          <line x1="72.5" y1="0" x2="72.5" y2="90" stroke="#475569" stroke-width="2"/>
          <text x="72.5" y="52" class="equip-label" text-anchor="middle">Z 業務用冷凍庫</text>
        </g>

        <g transform="translate(25, 170)" class="soft-shadow">
          <rect width="315" height="95" fill="url(#metalStainless)" stroke="#334155" stroke-width="2" rx="4"/>
          <text x="157.5" y="52" class="equip-label" text-anchor="middle">WSS 資材保管</text>
        </g>
      </g>

      <!-- REAR RICE LINE -->
      <g transform="translate(30, 20)">
        <rect x="0" y="0" width="1080" height="110" fill="#FED7AA" stroke="#EA580C" stroke-width="2" stroke-dasharray="6,3" rx="6"/>

        <g transform="translate(15, 12)" class="soft-shadow">
          <rect width="90" height="85" fill="url(#metalStainless)" stroke="#334155" stroke-width="2" rx="4"/>
          <circle cx="45" cy="42.5" r="26" fill="#E2E8F0" stroke="#334155" stroke-width="2"/>
          <text x="45" y="48" class="equip-label" text-anchor="middle">RW 洗米機</text>
        </g>

        <g transform="translate(125, 12)" class="soft-shadow">
          <rect width="105" height="85" fill="url(#metalStainless)" stroke="#CA8A04" stroke-width="2.5" rx="4"/>
          <circle cx="52.5" cy="42.5" r="30" fill="url(#riceYellow)" stroke="#B45309" stroke-width="2"/>
          <text x="52.5" y="48" class="equip-label" text-anchor="middle">RC1 IH炊飯器1</text>
        </g>

        <g transform="translate(250, 12)" class="soft-shadow">
          <rect width="105" height="85" fill="url(#metalStainless)" stroke="#CA8A04" stroke-width="2.5" rx="4"/>
          <circle cx="52.5" cy="42.5" r="30" fill="url(#riceYellow)" stroke="#B45309" stroke-width="2"/>
          <text x="52.5" y="48" class="equip-label" text-anchor="middle">RC2 IH炊飯器2</text>
        </g>

        <g transform="translate(375, 12)" class="soft-shadow">
          <rect width="105" height="85" fill="url(#metalStainless)" stroke="#334155" stroke-width="2" rx="4"/>
          <rect x="15" y="15" width="75" height="55" fill="url(#riceYellow)" stroke="#B45309" rx="4"/>
          <text x="52.5" y="48" class="equip-label" text-anchor="middle">SM 酢合わせ機</text>
        </g>

        <g transform="translate(500, 12)" class="soft-shadow">
          <rect width="100" height="85" fill="url(#metalStainless)" stroke="#0284C7" stroke-width="2" rx="4"/>
          <circle cx="50" cy="42.5" r="22" fill="#E0F2FE" stroke="#0284C7" stroke-width="2"/>
          <text x="50" y="48" class="equip-label" text-anchor="middle">SR1 シャリロボ</text>
        </g>

        <g transform="translate(615, 12)" class="soft-shadow">
          <rect width="90" height="85" fill="url(#metalStainless)" stroke="#334155" stroke-width="2" rx="4"/>
          <rect x="12" y="18" width="66" height="50" fill="#FEF08A" stroke="#CA8A04" rx="3"/>
          <text x="45" y="48" class="equip-sub" text-anchor="middle" font-weight="bold">シャリ桶1</text>
        </g>

        <g transform="translate(720, 12)" class="soft-shadow">
          <rect width="100" height="85" fill="url(#metalStainless)" stroke="#0284C7" stroke-width="2" rx="4"/>
          <circle cx="50" cy="42.5" r="22" fill="#E0F2FE" stroke="#0284C7" stroke-width="2"/>
          <text x="50" y="48" class="equip-label" text-anchor="middle">SR2 シャリロボ</text>
        </g>

        <g transform="translate(835, 12)" class="soft-shadow">
          <rect width="120" height="85" fill="url(#suzumoRed)" stroke="#DC2626" stroke-width="3" rx="6"/>
          <rect x="12" y="12" width="96" height="61" fill="#FFFFFF" stroke="#DC2626" stroke-width="2" rx="4"/>
          <text x="60" y="40" class="equip-label" text-anchor="middle" font-size="13" fill="#DC2626">SUZUMO</text>
          <text x="60" y="58" class="equip-label" text-anchor="middle" font-size="12" fill="#DC2626">巻き寿司ロボ</text>
        </g>

        <g transform="translate(970, 12)" class="soft-shadow">
          <rect width="95" height="85" fill="url(#metalStainless)" stroke="#334155" stroke-width="2" rx="4"/>
          <rect x="15" y="18" width="65" height="50" fill="#FEF08A" stroke="#CA8A04" rx="3"/>
          <text x="47.5" y="48" class="equip-sub" text-anchor="middle" font-weight="bold">シャリ桶2</text>
        </g>
      </g>

      <!-- MIDDLE PREP AREA -->
      <g transform="translate(60, 160)">
        <rect width="1020" height="115" fill="#FFFFFF" stroke="#334155" stroke-width="2" rx="6" class="soft-shadow"/>
        
        <g transform="translate(20, 15)" class="soft-shadow">
          <rect width="140" height="85" fill="url(#metalStainless)" stroke="#0284C7" stroke-width="2" rx="4"/>
          <circle cx="70" cy="42.5" r="24" fill="#E0F2FE" stroke="#0284C7" stroke-width="2"/>
          <text x="70" y="48" class="equip-label" text-anchor="middle" fill="#0369A1">S 仕込シンク</text>
        </g>

        <g transform="translate(180, 15)" class="soft-shadow">
          <rect width="110" height="85" fill="url(#metalStainless)" stroke="#0284C7" stroke-width="3" rx="4"/>
          <circle cx="55" cy="42.5" r="20" fill="#FFFFFF" stroke="#0284C7" stroke-width="2.5"/>
          <text x="55" y="38" class="equip-label" text-anchor="middle" font-size="11" fill="#0284C7">手洗い専用</text>
          <text x="55" y="55" class="equip-label" text-anchor="middle" font-size="11" fill="#0284C7">シンク (HS)</text>
        </g>

        <g transform="translate(310, 15)" class="soft-shadow">
          <rect width="680" height="85" fill="url(#metalStainless)" stroke="#334155" stroke-width="1.5" rx="4"/>
          
          <rect x="30" y="18" width="140" height="50" fill="#FDE68A" stroke="#B45309" stroke-width="2" rx="4"/>
          <text x="100" y="48" class="equip-label" text-anchor="middle" fill="#78350F">まな板スペース</text>

          <rect x="200" y="18" width="220" height="50" fill="#FECDD3" stroke="#E11D48" stroke-width="2" rx="4"/>
          <text x="310" y="48" class="equip-label" text-anchor="middle" fill="#BE123C">新鮮生ネタ保冷バット</text>

          <text x="550" y="50" class="equip-label" text-anchor="middle" font-size="14">魚切付・仕込みカウンター</text>
        </g>
      </g>

      <!-- COMPLETE BLIND PARTITION WALL -->
      <g transform="translate(0, 305)">
        <rect x="0" y="0" width="1150" height="20" fill="url(#hatchBlind)" stroke="#0F172A" stroke-width="3"/>
        <rect x="0" y="0" width="1150" height="20" fill="none" stroke="#DC2626" stroke-width="2"/>
        <text x="575" y="-10" class="brand-title" font-size="14" fill="#DC2626" text-anchor="middle">【完全目隠し仕切り壁】 (仕込み場視線非公開)</text>

        <g transform="translate(740, -6)" class="soft-shadow">
          <rect width="160" height="32" fill="#FEF08A" stroke="#CA8A04" stroke-width="2.5" rx="4"/>
          <text x="80" y="21" class="equip-label" text-anchor="middle" font-size="13" fill="#78350F">受渡し扉 (HACCP)</text>
        </g>
      </g>

      <!-- FRONT SHOWCASES (Pattern C: EXPANDED LIVE SHOWCASE 3.8m) -->
      <g transform="translate(40, 350)">
        <g transform="translate(20, 100)" class="drop-shadow">
          <rect width="140" height="140" fill="url(#suzumoRed)" stroke="#DC2626" stroke-width="3.5" rx="8"/>
          <rect x="15" y="15" width="110" height="60" fill="#0F172A" rx="4"/>
          <text x="70" y="50" class="equip-label" text-anchor="middle" font-size="13" fill="#FFD100">POS画面</text>
          <text x="70" y="100" class="brand-title" font-size="15" fill="#DC2626" text-anchor="middle">POS会計レジ</text>
          <text x="70" y="122" class="equip-sub" text-anchor="middle" fill="#7F1D1D" font-weight="bold">(左端配置)</text>
        </g>

        <!-- Expanded Live Counter Showcase (3.8m) -->
        <g transform="translate(180, 100)" class="drop-shadow">
          <rect width="600" height="140" fill="#FEF9C3" stroke="#CA8A04" stroke-width="3.5" rx="8"/>
          <rect x="20" y="20" width="560" height="50" fill="#FFFFFF" stroke="#CA8A04" stroke-width="2" rx="4"/>
          <circle cx="50" cy="45" r="14" fill="#EF4444"/>
          <circle cx="110" cy="45" r="14" fill="#F97316"/>
          <circle cx="170" cy="45" r="14" fill="#EAB308"/>
          <circle cx="230" cy="45" r="14" fill="#10B981"/>
          <circle cx="290" cy="45" r="14" fill="#3B82F6"/>
          <circle cx="350" cy="45" r="14" fill="#8B5CF6"/>
          <circle cx="410" cy="45" r="14" fill="#EC4899"/>
          <text x="490" y="50" class="equip-sub" font-weight="bold" fill="#B45309" font-size="12">生ネタ豊富</text>

          <text x="300" y="95" class="equip-label" font-size="16" text-anchor="middle" fill="#B45309">【大型拡大 3.8m】Subway風 対面ライブネタケース</text>
          <text x="300" y="120" class="equip-label" font-size="14" text-anchor="middle" fill="#CA8A04">★職人の手渡し＆対面ライブ組み立てを最大演出</text>
        </g>

        <g transform="translate(800, 100)" class="drop-shadow">
          <rect width="280" height="140" fill="#FFEDD5" stroke="#C2410C" stroke-width="3.5" rx="8"/>
          <text x="140" y="75" class="equip-label" font-size="15" text-anchor="middle" fill="#C2410C">持ち帰りケース</text>
          <text x="140" y="100" class="equip-sub" font-size="12" text-anchor="middle" fill="#C2410C" font-weight="bold">(即買いストック)</text>
        </g>

        <g transform="translate(1100, 100)" class="drop-shadow">
          <rect width="120" height="140" fill="url(#riceYellow)" stroke="#B45309" stroke-width="3" rx="8"/>
          <text x="60" y="70" class="equip-label" font-size="15" text-anchor="middle" fill="#78350F">保温受取棚</text>
          <text x="60" y="95" class="brand-title" font-size="20" text-anchor="middle" fill="#78350F">(T)</text>
        </g>
      </g>

      <path d="M 1240 600 L 750 600 L 400 600 L 90 600 L 90 500 L -120 500" class="flow-cust" stroke-width="5" stroke-dasharray="10,6"/>
      <text x="850" y="625" class="equip-label" font-size="14" fill="#CA8A04">①対面ライブケースでオーダー注文</text>
      <text x="210" y="625" class="equip-label" font-size="14" fill="#DC2626">②左側POSで会計</text>
      <text x="-90" y="475" class="equip-label" font-size="14" fill="#0284C7">③そのまま左外の客席へ移動</text>
    </g>

    <g transform="translate(700, 720)">
      <line x1="0" y1="0" x2="60" y2="0" class="flow-cust" stroke-width="5" stroke-dasharray="10,6"/>
      <text x="75" y="5" class="equip-label" font-size="14">顧客動線 (対面オーダー ➔ 左側会計 ➔ 敷地外客席へ)</text>
      <line x1="420" y1="0" x2="480" y2="0" class="flow-staff" stroke-width="4"/>
      <text x="495" y="5" class="equip-label" font-size="14">従業員動線</text>
    </g>
  </g>
</svg>
